<?xml version="1.0" encoding="utf-8"?>
<!-- Generator: Adobe Illustrator 19.2.0, SVG Export Plug-In . SVG Version: 6.00 Build 0)  -->
<svg version="1.1" id="Layer_1" xmlns="http://www.w3.org/2000/svg" xmlns:xlink="http://www.w3.org/1999/xlink" x="0px" y="0px"
	 viewBox="0 0 526 502" style="enable-background:new 0 0 526 502;" xml:space="preserve">
<style type="text/css">
	.st10{fill:#E9D8A4;}
	.st11{fill:#E9D9A6;}
</style>
<g id="K2Xc7N_1_">
	<g>
		<path id="1" class="st10" d="M410.7,328.5c-2.1,7.5-3.5,15.2-6.3,22.4c-10.5,28-32.3,41.5-60.9,43.9c-11.4,1-23.5-0.1-34.7-2.7
			c-23.7-5.4-39.5-20.9-47.1-43.9c-9.5-29-8.8-57.7,8.3-83.9c5.7-8.8,14.7-15.4,22.6-23.5c-0.8-0.6-2.6-2.2-4.6-3.5
			c-23.8-15.2-33.9-37.7-31.2-65c3.2-32.1,21.9-52.4,52.8-61.5c4.4-1.3,8.8-2.5,13.1-3.7c6.4,0,12.9,0,19.3,0
			c1.8,0.6,3.6,1.5,5.5,1.8c26.5,3.8,45.9,17.1,56.6,41.9c2.7,6.3,4.3,13,6.4,19.5c0,5.9,0,11.7,0,17.6c-0.5,0.7-1.3,1.3-1.5,2.1
			c-3,20.6-13.2,36.5-30.9,47.5c-1.9,1.2-4.2,1.9-6.3,2.9c21,13,31.6,29.4,36.2,50.1c0.7,3.3,1.6,6.6,2.5,9.8
			C410.7,309.8,410.7,319.1,410.7,328.5z M388.7,313.9c-0.8-6.9-1.3-13.9-2.5-20.8c-4-22.3-18.1-36-42-41
			c-21.6-4.5-44.2,3.8-55.3,21.3c-13.2,20.7-12.5,43.2-6.7,65.8c9.2,36.1,60.1,50.2,87.3,24.7C384.4,350.2,387.9,332.8,388.7,313.9z
			 M332.8,233.8c34.4,0.8,56.3-22.4,55.8-52.9c-0.5-34.7-22.8-54-56.3-53.5c-34.7,0.5-54,22.3-54.1,54
			C278.1,213.8,302.5,234.1,332.8,233.8z"/>
		<path id="8" class="st11" d="M115.7,142.4c14.1-8.2,27.8-17,42.3-24.4c7-3.6,15.1-5.4,22.9-6.8c7.5-1.4,10.2,3,10.2,10.4
			c-0.1,86.5-0.1,173.1-0.1,259.6c0,10-1,10.2-12.3,10.7c-8.2,0.4-10.5-2.6-10.5-10.6c0.2-77.8,0.1-155.5,0.1-233.3
			c0-3.4,0-6.8,0-12c-8.2,3.5-14.8,6.2-21.3,9.1c-7.2,3.2-14.2,6.9-21.6,9.6c-2.9,1.1-6.5,0-9.8-0.1
			C115.7,150.6,115.7,146.5,115.7,142.4z"/>
	</g>
</g>
</svg>
