<?xml version="1.0" encoding="utf-8"?>
<!-- Generator: Adobe Illustrator 19.2.0, SVG Export Plug-In . SVG Version: 6.00 Build 0)  -->
<svg version="1.1" id="Layer_1" xmlns="http://www.w3.org/2000/svg" xmlns:xlink="http://www.w3.org/1999/xlink" x="0px" y="0px"
	 viewBox="0 0 1296 1728" style="enable-background:new 0 0 1296 1728;" xml:space="preserve">
<style type="text/css">
	.st0{fill:#FEC7A0;}
	.st1{fill:#FEF6E3;}
	.st2{fill:#FEEAB7;}
</style>
<g id="_x30_gGgk1_1_">
	<g>
		<path class="st0" d="M733,431c-4.1,6.6-8.1,13.3-12.2,19.9c-0.9,0.7-2.1,1.1-2.7,2c-4.2,7.2-8.5,14.3-12.3,21.6
			c-11.6,22.6-17.7,47.2-23.7,71.7c-9.4,38.1-16.9,76.6-20.2,115.8c-1.7,20.3-4.4,40.5-5.7,60.8c-0.9,15-0.5,30.2-0.1,45.2
			c0.3,13.8,1.1,27.5,2,41.2c1.2,18,2.1,36.1,4.1,54c2.1,18.4,4.7,36.8,8.3,54.9c5.8,29.4,12.6,58.6,19.2,87.8
			c4.5,20,6.1,40.3,6.4,60.7c0.2,11.7-0.7,23.6,0.2,35.2c1.3,17.6,7.6,33.9,18.4,47.7c10.2,13.1,22.1,24.8,32.9,37.4
			c5.9,6.9,11.7,14.1,16.3,21.8c3.2,5.4,2.8,12.3-1.6,17.3c-4.1,4.7-9.1,8.8-14.2,12.3c-15.6,10.6-32.8,18.2-50.4,24.8
			c-20,7.4-40.7,12.7-61.9,13.5c-17.2,0.6-34.5-0.6-51.7-1.8c-23.2-1.6-46.2-4.8-67.5-15c-10.6-10.4-9-18.6-1.6-28.8
			c7.7-10.8,16.1-21.1,25.1-30.9c18.4-20.1,37.9-39.3,56-59.7c11-12.4,20.5-26.1,29.8-39.8c7.8-11.5,9.3-25.4,11.5-38.8
			c4.1-25,6.2-50.1,4.9-75.4c-0.8-15.2-2.6-30.4-4.5-45.5c-2.5-19.9-5.6-39.7-8.4-59.6c-2.7-19.4-5.4-38.7-7.7-58.2
			c-1.8-15.3-3.5-30.7-4.3-46.1c-1.2-23.2-1.5-46.5-2.2-69.8c-0.3-12.3-0.4-24.6-1-36.9c-2-42.3-7.1-84-21.1-124.2
			c-8-23-19.8-44.3-33.5-64.5c-10.3-15.1-20.2-30.5-30.2-45.7c-1-1.5-1.4-3.3-2.1-5C595.7,431,664.3,431,733,431z"/>
		<path class="st1" d="M650.1,1298.2c0,0.6-0.1,1.2-0.1,1.8c-11,0-22,0-33,0c0-0.4,0-0.7,0-1.1c1.6-0.3,3.1-0.9,4.7-0.9
			c4.9,0.2,9.8,0.8,14.7,0.8C640.9,1298.9,645.5,1298.4,650.1,1298.2z"/>
		<path class="st2" d="M650.1,1298.2c-4.6,0.3-9.1,0.8-13.7,0.7c-4.9,0-9.8-0.7-14.7-0.8c-1.5-0.1-3.1,0.6-4.7,0.9
			c-3.3-0.3-6.7-0.6-10-0.9c-1,0-2-0.1-3-0.1c-2.7-0.3-5.3-0.6-8-0.9c-1,0-2-0.1-3-0.1c-2-0.3-4-0.6-6-0.9c-0.7,0-1.3-0.1-2-0.1
			c-13.3-2.3-26.7-4.2-39.9-7.1c-9.7-2.1-19.2-5.4-26.1-13.3c-4.1-4.7-5.3-9.8-2.8-15.6c21.3,10.2,44.3,13.5,67.5,15
			c17.2,1.2,34.5,2.4,51.7,1.8c21.3-0.8,41.9-6.1,61.9-13.5c17.6-6.5,34.8-14.2,50.4-24.8c5.2-3.5,10.1-7.7,14.2-12.3
			c4.4-5,4.8-11.9,1.6-17.3c-4.6-7.8-10.4-14.9-16.3-21.8c-10.8-12.6-22.7-24.3-32.9-37.4c-10.8-13.8-17.1-30.1-18.4-47.7
			c-0.8-11.7,0-23.5-0.2-35.2c-0.3-20.4-1.9-40.7-6.4-60.7c-6.6-29.2-13.3-58.5-19.2-87.8c-3.6-18.1-6.2-36.5-8.3-54.9
			c-2-17.9-2.9-36-4.1-54c-0.9-13.7-1.7-27.5-2-41.2c-0.3-15.1-0.8-30.2,0.1-45.2c1.3-20.3,4-40.5,5.7-60.8
			c3.3-39.2,10.8-77.7,20.2-115.8c6-24.5,12.1-49.1,23.7-71.7c3.8-7.4,8.1-14.5,12.3-21.6c0.5-0.9,1.8-1.3,2.7-2
			c-3.6,10.5-7.5,20.9-10.7,31.5c-9.9,32.7-17.5,66-23,99.7c-3.4,20.9-6.3,41.9-8.9,62.9c-1.6,13.3-1.8,26.8-3.3,40.1
			c-2.8,23.8-3.5,47.7-2.7,71.7c0.7,21.4,2.4,42.7,3.8,64.1c0.9,13.9,1.4,27.9,3.3,41.6c2.7,19.5,6.1,38.9,10,58.2
			c6.8,33.1,14.6,66,21.4,99.1c5,23.9,5.2,48.2,4.1,72.5c-1.4,29.3,7.4,55,25.7,77.4c10.5,12.8,22.5,24.4,33.5,36.9
			c5,5.7,9.6,11.9,13.4,18.5c4.4,7.5,3.2,16.5-3.5,22.3c-7.3,6.2-15.1,12.1-23.4,16.7c-23.3,13.1-47.8,23.3-74,29.2
			c-8.7,2-17.6,3.1-26.4,4.7c-1,0-2,0.1-3,0.1C654.7,1298.1,652.4,1298.1,650.1,1298.2z"/>
		<path class="st1" d="M593,1296.9c1,0,2,0.1,3,0.1C595,1297,594,1297,593,1296.9z"/>
		<path class="st1" d="M604,1298c1,0,2,0.1,3,0.1C606,1298,605,1298,604,1298z"/>
		<path class="st1" d="M585,1296c0.7,0,1.3,0.1,2,0.1C586.3,1296,585.7,1296,585,1296z"/>
		<path class="st1" d="M657,1298c1,0,2-0.1,3-0.1C659,1298,658,1298,657,1298z"/>
	</g>
</g>
</svg>
